<svg xmlns="http://www.w3.org/2000/svg" viewBox="0 0 394.81 98.73"><defs><style>.cls-1{fill:#e6c9a7;}</style></defs><title>bg_dathang</title><g id="Layer_2" data-name="Layer 2"><g id="Layer_1-2" data-name="Layer 1"><g id="_Group_" data-name="&lt;Group&gt;"><path id="_Path_" data-name="&lt;Path&gt;" class="cls-1" d="M394,26.9c-1.67-.08-3.56-1.74-5-1.74-.1-.33,3.19-1,1.6-2.09s-7.25-.42-9.26-.76c-1.13-.19-9.48-1.17-9.39-2,.47-4.45,18.22.48,19.92-1.73-2-2.1-5.85-1.38-8.77-1.38,0-2.19-1.59-.36-2.93-1.44a.77.77,0,0,0,.57-.84,295.52,295.52,0,0,1-34.24-2.28C341.19,12,339,7.47,333,6.32c-12.21-2.39-24.26-4.56-35.48-5.25-6.16-.38-12.8-1.36-18.45-1a202.42,202.42,0,0,1-24,.57c-5.4-.3-11.7.59-17.7.68-5.32.08-12.52.08-18.23,1.55-2.59-2.5-6.31-.29-8.49-.23-4,.11-6.45-.3-10.39.24-5.39.74-12.38-.59-17.68,0C171.32,4.23,160,2,147.75,3.09c-3.79.32-9,1.15-14.39,1.55-3.83.28-6.09.78-9.24,1.17-3.58.44-7.34.76-10.91,1.41-25.07,4.51-50.9.22-76.25,2-5.67.4-11.22.5-16.71,1.11-3.59.4-9.62.44-12.92,2-6.64,3.15,0,6.72,2.56,10.27-.39.35-1.7,1-1.78,1.48-.5,3.15,1.38.68-1,2.81C3.93,29.8,2,27.47,4,33c.23.64,2.46,4.15,2.24,4.93s-2,1.78-1.93,1.55c-.12.44-1.37.57-1.5.84-.87,1.79,1.44,2.21,1.75,3.48a44,44,0,0,0,1.2,4.52c.11.35,2.06,5,1.86,4.61.48.83,2.9,3.3,2.88,4-.08,2.53.33.39-2.14.78C6.09,58,2.46,54.92.53,57.31c-1.64,2,1,3,1.67,4.33,1,1.92,2.83,4,3,6.22,0,.49-2,3-1.76,4.07.45,1.83,2.58,2.3,3.78,3.34,5,4.31,9,6.14,15.54,6.92A98.91,98.91,0,0,1,34.46,84c1.32.33.3,1.93,1.66,2.22.73.15,7.28.05,7.72,0a52.89,52.89,0,0,1,11.91,0c2.85.23,7,1.52,10,1.72,4.22.28,11-.28,16.19,0a36.45,36.45,0,0,1,4.29,0c-.17-.05,3,1.33,2.21,1.43s4.92.11,2.34-.82c1.75.63.25-.73,2.63,2.26Q95,90.23,94.9,89c.88-.07,2.6,2.34,4,2.28,2.62-.11,4.6-6.23,8.44-2.52-1.42,1.2-3.29,1.74-1.79,3.66.46.59,5.63-.67,6.47-.57,4.88.58,6.27,5,6.77-.38.08-.83-3.88-.24-1.08-2,2.07-1.31,1.56-.71,3.15,1.11,2.25,2.56.47,2.83,3.35,3.45.26.06,3.75-.64,4.92-.47,0,0,1,2.21,1.63,2.28s2.48-1.17,3.09-1.71c1.13-1-.18-4,1.77-2.57.38.29-.19,2.55-.49,2.19.31.38.22,2.47.49,2.66h3.81q1.37-2.37,2.68.29c1.6.11,2.18,1.12,4.14-.55-.58-1.05-3.37-3.73.59-3.73.54,2.08-1.46,1.92,1.34,4,1.55,1.15,3.51,2.42,5.4.65,2,1.39.86,1.31,3.16.72.56-.15,3-2.11,3.68-1.94,0,4.05,8.57,2,10,2,1,0,6.15.79,9.15.86,8.38.19,18.27-1.36,26-1.74,17.17-.85,34.12-4,50.17-8,8.78-2.17,17.62-2.92,26.66-4.63,3.85-.73,8.46-1.75,12.61-2.19,4-.42,8.65-.23,12.47-1.44,2.66-.84,4-2.2,6.42-2.55a4.79,4.79,0,0,0,2.21-.57c1.29-.57.57,1.81,2.81.56.86-.48-.31-2,.74-2.35a116.09,116.09,0,0,1,13.14-3.34c7.46-1.45,13.29-1.58,19.24-3.9,2-.79,4.52.06,7.44-.67.32-.08,3.07-1.74,3.13-1.81.93-.94-1.28-1.42-.75-2a2.77,2.77,0,0,1,4.58.12,1.11,1.11,0,0,0-.58,1.44c7.11,0,1.38-.57,1.87-1.52,1.58-3,5.94,2.2,3.64-3-.31-.7-3.23.33-3.15-1.15s3.43-1.55,3.45-1.5a8,8,0,0,0-1.68-.78c-.15.05,2.37-.85,3-1.14-.12.06,2.12.57,2,.57C377.1,56,373.5,56,373.58,56c0-5,.24-.13,1.75-2.57-4.22-4.48,10.81-1.33,10.06-3.7.15-.73-5.78-1.1-6.22-1.16-1.83-.22-5.1.08-6.77-.55-1.31-.49-.66-2.16-1.71-2.86a10.58,10.58,0,0,0-3.6-.56c-.2-.63,12.87-3.57,14.76-6.27,2.08-3-.64-1.61-.39-2.85.52-2.6,1.51-.76,3.87-3.09-.78-.78-2.89.34-2.89-1.47,2.76,0,2.31-2.53,4-3.19,1.37-.52,7.61,1,8.34,0l-.83-.8C393.79,26.89,394.26,27.17,394,26.9Z"/></g></g></g></svg>