<svg xmlns="http://www.w3.org/2000/svg" xmlns:xlink="http://www.w3.org/1999/xlink" viewBox="0 0 271.27 60.19"><defs><style>.cls-1{fill:url(#linear-gradient);}</style><linearGradient id="linear-gradient" y1="30.1" x2="271.27" y2="30.1" gradientUnits="userSpaceOnUse"><stop offset="0" stop-color="#dfaa69"/><stop offset="0.45" stop-color="#dda868"/><stop offset="0.62" stop-color="#d6a364"/><stop offset="0.73" stop-color="#cb985c"/><stop offset="0.83" stop-color="#ba8a52"/><stop offset="0.91" stop-color="#a47744"/><stop offset="0.98" stop-color="#896034"/><stop offset="1" stop-color="#7e572d"/></linearGradient></defs><title>bg_hoantatdonhang</title><g id="Layer_2" data-name="Layer 2"><g id="Layer_1-2" data-name="Layer 1"><g id="_Group_" data-name="&lt;Group&gt;"><path id="_Path_" data-name="&lt;Path&gt;" class="cls-1" d="M270.7,16.4c-1.15,0-2.44-1.06-3.47-1.06-.07-.2,2.19-.59,1.1-1.27s-5-.25-6.36-.46c-.78-.12-6.52-.72-6.45-1.23.32-2.71,12.52.29,13.69-1.06-1.4-1.28-4-.84-6-.84,0-1.33-1.09-.22-2-.88q.44-.17.39-.51A228.47,228.47,0,0,1,238,7.7c-3.6-.37-5.13-3.14-9.2-3.84A215.23,215.23,0,0,0,204.45.65c-4.23-.23-8.8-.83-12.68-.6A156.68,156.68,0,0,1,175.26.4c-3.71-.18-8,.36-12.16.42-3.66.05-8.6,0-12.52.94-1.78-1.53-4.33-.18-5.83-.14a64.15,64.15,0,0,0-7.14.15c-3.7.45-8.5-.36-12.15,0-7.73.8-15.53-.53-23.93.1-2.6.2-6.18.7-9.89.95-2.63.17-4.19.47-6.35.71-2.46.27-5,.47-7.5.86-17.22,2.75-35,.13-52.39,1.23-3.89.25-7.71.3-11.48.68C11.44,6.55,7.3,6.57,5,7.53c-4.56,1.92,0,4.1,1.76,6.26-.27.21-1.17.61-1.22.9-.34,1.92.94.42-.67,1.71-2.21,1.77-3.5.35-2.17,3.69.15.39,1.69,2.53,1.54,3S2.91,24.19,3,24c-.08.27-.94.35-1,.51-.6,1.09,1,1.35,1.2,2.12a24.46,24.46,0,0,0,.82,2.76c.08.21,1.41,3,1.27,2.81.33.5,2,2,2,2.42-.05,1.55.23.24-1.47.48s-4-1.66-5.37-.2c-1.13,1.24.68,1.83,1.15,2.64.67,1.17,1.94,2.46,2,3.79,0,.3-1.38,1.86-1.21,2.48.31,1.12,1.77,1.4,2.6,2A18.78,18.78,0,0,0,15.61,50.1a76,76,0,0,1,8.07,1.08c.91.2.2,1.18,1.14,1.35.5.09,5,0,5.31,0a40.93,40.93,0,0,1,8.19,0c2,.14,4.78.92,6.84,1,2.9.17,7.57-.17,11.13,0a28.22,28.22,0,0,1,2.95,0c-.12,0,2.08.81,1.52.87s3.38.07,1.61-.5c1.2.39.17-.44,1.81,1.38q1.09-.32,1-1.05c.6,0,1.78,1.43,2.75,1.39,1.8-.07,3.16-3.8,5.8-1.54-1,.73-2.26,1.06-1.23,2.23.32.36,3.87-.41,4.44-.35,3.36.35,4.31,3.06,4.65-.23.05-.5-2.66-.14-.74-1.22,1.42-.8,1.07-.43,2.17.67,1.54,1.56.32,1.72,2.3,2.1a30.21,30.21,0,0,1,3.38-.28s.71,1.35,1.12,1.39a4.88,4.88,0,0,0,2.12-1c.78-.62-.13-2.46,1.22-1.56.26.17-.13,1.55-.34,1.33.22.23.15,1.5.34,1.62h2.62q.94-1.45,1.84.18c1.1.07,1.5.68,2.85-.34-.4-.64-2.32-2.28.4-2.28.37,1.27-1,1.17.92,2.43,1.07.7,2.41,1.48,3.71.4,1.35.85.59.8,2.17.44.39-.09,2-1.29,2.53-1.18,0,2.47,5.89,1.23,6.9,1.21.68,0,4.22.48,6.29.53,5.76.12,12.55-.83,17.86-1.06a203.42,203.42,0,0,0,34.47-4.86c6-1.32,12.1-1.78,18.32-2.82,2.65-.44,5.81-1.07,8.66-1.33s5.94-.14,8.57-.88c1.83-.51,2.73-1.34,4.41-1.56a3.62,3.62,0,0,0,1.52-.35c.88-.34.39,1.1,1.93.34.59-.29-.21-1.23.51-1.43a88.14,88.14,0,0,1,9-2c5.13-.89,9.13-1,13.22-2.37,1.39-.48,3.11,0,5.11-.41.22,0,2.11-1.06,2.15-1.1.64-.57-.88-.86-.51-1.23a2,2,0,0,1,3.15.07.65.65,0,0,0-.4.88c4.89,0,.95-.35,1.29-.93,1.08-1.83,4.08,1.34,2.5-1.85-.21-.43-2.22.2-2.16-.7s2.36-.94,2.37-.92a5.81,5.81,0,0,0-1.16-.47c-.1,0,1.63-.52,2-.7-.08,0,1.46.35,1.38.35,1.44-.69-1-.7-1-.7,0-3,.16-.08,1.2-1.57-2.9-2.73,7.43-.81,6.91-2.25.1-.44-4-.67-4.28-.7-1.26-.13-3.51,0-4.65-.34-.9-.3-.45-1.31-1.18-1.74a8.12,8.12,0,0,0-2.47-.34c-.13-.39,8.84-2.17,10.14-3.82,1.43-1.81-.44-1-.27-1.74.36-1.58,1-.46,2.66-1.89-.53-.48-2,.21-2-.89,1.9,0,1.58-1.54,2.77-1.94.94-.32,5.23.59,5.73,0l-.57-.49C270.57,16.4,270.89,16.56,270.7,16.4Z"/></g></g></g></svg>