<svg xmlns="http://www.w3.org/2000/svg" xmlns:xlink="http://www.w3.org/1999/xlink" viewBox="0 0 292.42 75.43"><defs><style>.cls-1{fill:url(#linear-gradient);}</style><linearGradient id="linear-gradient" y1="37.71" x2="292.42" y2="37.71" gradientUnits="userSpaceOnUse"><stop offset="0" stop-color="#dfaa69"/><stop offset="0.45" stop-color="#dda868"/><stop offset="0.62" stop-color="#d6a364"/><stop offset="0.73" stop-color="#cb985c"/><stop offset="0.83" stop-color="#ba8a52"/><stop offset="0.91" stop-color="#a47744"/><stop offset="0.98" stop-color="#896034"/><stop offset="1" stop-color="#7e572d"/></linearGradient></defs><title>bg_sub_title</title><g id="Layer_2" data-name="Layer 2"><g id="Layer_1-2" data-name="Layer 1"><g id="_Group_" data-name="&lt;Group&gt;"><path id="_Path_" data-name="&lt;Path&gt;" class="cls-1" d="M291.8,20.55c-1.24-.06-2.64-1.33-3.74-1.33-.07-.25,2.36-.74,1.18-1.59s-5.37-.32-6.86-.58c-.84-.15-7-.9-7-1.55.35-3.4,13.49.37,14.76-1.32-1.5-1.61-4.33-1.05-6.5-1.05,0-1.67-1.18-.27-2.17-1.1a.59.59,0,0,0,.42-.64,212.31,212.31,0,0,1-25.36-1.74c-3.88-.46-5.53-3.93-9.91-4.82-9-1.82-18-3.48-26.28-4-4.57-.29-9.48-1-13.67-.75a145.37,145.37,0,0,1-17.8.43c-4-.23-8.67.45-13.11.52-3.94.06-9.27.06-13.5,1.18C160.39.29,157.64,2,156,2c-3,.08-4.78-.23-7.7.18-4,.57-9.17-.45-13.1,0-8.33,1-16.75-.67-25.8.13-2.81.25-6.67.88-10.66,1.18-2.83.22-4.51.59-6.85.89-2.65.34-5.44.58-8.08,1.07C65.28,9,46.15,5.67,27.37,7c-4.2.31-8.31.38-12.38.85-2.66.31-7.13.34-9.57,1.53-4.91,2.41,0,5.14,1.9,7.84C7,17.54,6.06,18,6,18.41c-.37,2.41,1,.52-.72,2.14C2.91,22.77,1.51,21,3,25.18c.17.49,1.82,3.17,1.66,3.77s-1.48,1.36-1.43,1.18c-.09.34-1,.44-1.11.64-.65,1.37,1.06,1.69,1.3,2.66a34.48,34.48,0,0,0,.89,3.46c.08.27,1.52,3.79,1.37,3.52.36.63,2.15,2.52,2.14,3-.06,1.94.24.29-1.59.6-1.67.27-4.36-2.08-5.79-.25-1.22,1.55.74,2.29,1.23,3.31.72,1.47,2.09,3.08,2.19,4.75,0,.38-1.49,2.33-1.3,3.11.33,1.4,1.91,1.76,2.8,2.55a18.77,18.77,0,0,0,11.51,5.28,71.18,71.18,0,0,1,8.7,1.36c1,.25.22,1.48,1.23,1.69.54.12,5.39,0,5.72,0a38,38,0,0,1,8.82,0c2.11.17,5.16,1.16,7.38,1.31,3.12.22,8.16-.21,12,0a26.18,26.18,0,0,1,3.18,0c-.13,0,2.24,1,1.64,1.1s3.64.09,1.73-.63c1.29.48.19-.55,1.95,1.73q1.18-.4,1.12-1.32c.65-.05,1.92,1.79,3,1.74,1.94-.08,3.41-4.76,6.25-1.93-1.05.92-2.44,1.33-1.32,2.8.34.45,4.17-.51,4.79-.44,3.62.44,4.64,3.83,5-.29.06-.63-2.87-.18-.8-1.53,1.54-1,1.16-.54,2.34.84,1.67,2,.35,2.16,2.48,2.63a28.13,28.13,0,0,1,3.64-.36s.76,1.69,1.21,1.74,1.84-.89,2.29-1.31c.84-.77-.14-3.08,1.31-2,.28.22-.14,1.95-.37,1.67.23.29.16,1.88.37,2h2.82q1-1.81,2,.23c1.19.08,1.61.85,3.07-.42-.43-.8-2.5-2.85.43-2.85.4,1.59-1.08,1.47,1,3,1.15.88,2.6,1.85,4,.5,1.46,1.06.64,1,2.34.55.42-.11,2.19-1.61,2.72-1.48,0,3.1,6.35,1.54,7.43,1.52.73,0,4.55.61,6.78.66,6.2.15,13.53-1,19.25-1.33A190.71,190.71,0,0,0,189.45,68c6.51-1.66,13-2.23,19.75-3.54,2.85-.56,6.27-1.34,9.34-1.67s6.41-.18,9.24-1.1c2-.64,2.94-1.68,4.76-2a3.46,3.46,0,0,0,1.64-.44c1-.43.42,1.38,2.08.43.63-.37-.23-1.54.54-1.79a83.85,83.85,0,0,1,9.73-2.55c5.53-1.11,9.84-1.21,14.25-3,1.49-.6,3.35,0,5.51-.51.23-.06,2.28-1.33,2.32-1.38.69-.72-1-1.08-.55-1.55a2,2,0,0,1,3.39.09.86.86,0,0,0-.43,1.1c5.27,0,1-.44,1.39-1.16,1.17-2.29,4.4,1.68,2.69-2.32-.23-.53-2.4.25-2.33-.88s2.54-1.18,2.56-1.15a5.82,5.82,0,0,0-1.25-.59c-.11,0,1.75-.65,2.19-.87-.09,0,1.57.44,1.49.44,1.55-.87-1.11-.87-1.05-.87,0-3.8.18-.1,1.29-2-3.12-3.43,8-1,7.45-2.82.11-.55-4.28-.84-4.61-.88-1.36-.17-3.78.06-5-.42-1-.38-.49-1.65-1.27-2.18a7.61,7.61,0,0,0-2.67-.43c-.14-.48,9.53-2.73,10.93-4.79,1.54-2.27-.47-1.23-.29-2.18.39-2,1.12-.58,2.87-2.36-.58-.6-2.14.26-2.14-1.12,2,0,1.71-1.93,3-2.44,1-.4,5.64.74,6.17,0l-.62-.61C291.66,20.55,292,20.76,291.8,20.55Z"/></g></g></g></svg>