<svg xmlns="http://www.w3.org/2000/svg" viewBox="0 0 392.31 110.02"><defs><style>.cls-1{fill:#e6c9a7;}</style></defs><title>bg_title</title><g id="Layer_2" data-name="Layer 2"><g id="Layer_1-2" data-name="Layer 1"><g id="_Group_" data-name="&lt;Group&gt;"><path id="_Path_" data-name="&lt;Path&gt;" class="cls-1" d="M391.49,30c-1.66-.09-3.54-1.94-5-1.94-.1-.36,3.17-1.08,1.59-2.32s-7.21-.47-9.2-.85c-1.13-.21-9.42-1.31-9.33-2.26.47-5,18.1.53,19.8-1.93-2-2.34-5.81-1.54-8.71-1.54,0-2.44-1.58-.4-2.91-1.61a.86.86,0,0,0,.56-.93,262.37,262.37,0,0,1-34-2.54c-5.2-.67-7.42-5.74-13.3-7C318.8,4.38,306.82,2,295.68,1.19,289.55.77,283-.32,277.34.09a179.45,179.45,0,0,1-23.88.63c-5.36-.34-11.63.65-17.59.76-5.29.09-12.44.09-18.11,1.73-2.58-2.79-6.27-.33-8.44-.26-4,.12-6.41-.34-10.33.27-5.35.83-12.3-.66-17.57,0-11.18,1.46-22.47-1-34.61.19-3.77.36-8.94,1.28-14.3,1.73-3.8.32-6.06.86-9.18,1.3C119.77,7,116,7.32,112.48,8c-24.91,5-50.57.24-75.77,2.25-5.63.45-11.15.55-16.6,1.24-3.57.45-9.56.49-12.83,2.23-6.59,3.51,0,7.49,2.55,11.44-.39.39-1.69,1.12-1.77,1.65-.5,3.51,1.37.76-1,3.13C3.9,33.21,2,30.61,4,36.73c.22.71,2.44,4.63,2.23,5.5s-2,2-1.91,1.72c-.12.49-1.36.63-1.49.93-.87,2,1.43,2.46,1.74,3.88.64,2.9.56,2.89,1.19,5,.11.39,2,5.52,1.84,5.14.48.92,2.89,3.67,2.86,4.42-.08,2.82.33.43-2.13.87-2.24.4-5.84-3-7.76-.37-1.63,2.27,1,3.34,1.66,4.82,1,2.14,2.81,4.49,2.94,6.93,0,.55-2,3.39-1.75,4.54.44,2,2.56,2.57,3.75,3.72,5,4.8,8.91,6.84,15.44,7.71a88.42,88.42,0,0,1,11.68,2c1.31.36.3,2.15,1.65,2.47.73.17,7.24.06,7.67,0A46.9,46.9,0,0,1,55.4,96c2.83.25,6.92,1.69,9.9,1.91,4.19.32,11-.31,16.09,0,.85,0,3.57-.24,4.26,0-.17-.06,3,1.49,2.2,1.6s4.89.13,2.33-.92c1.74.71.25-.81,2.61,2.52A1.91,1.91,0,0,0,94.3,99.2c.87-.07,2.58,2.61,4,2.54,2.6-.12,4.57-6.94,8.38-2.81-1.41,1.34-3.27,1.94-1.78,4.08.46.66,5.59-.74,6.42-.63,4.85.64,6.23,5.59,6.73-.42.08-.92-3.85-.26-1.07-2.23,2.06-1.45,1.55-.79,3.13,1.23,2.23,2.85.46,3.15,3.33,3.84.26.06,3.72-.71,4.89-.52,0,0,1,2.46,1.62,2.54s2.47-1.3,3.07-1.91c1.12-1.13-.18-4.49,1.76-2.86.38.32-.19,2.84-.49,2.44.31.42.22,2.75.49,3h3.79q1.37-2.64,2.66.33c1.59.12,2.17,1.25,4.12-.61-.58-1.17-3.35-4.16.58-4.16.54,2.31-1.45,2.14,1.33,4.45,1.54,1.28,3.49,2.7,5.37.73,2,1.55.85,1.46,3.14.8.56-.16,2.94-2.35,3.65-2.16,0,4.52,8.52,2.24,10,2.22,1,0,6.11.88,9.09,1,8.32.21,18.15-1.52,25.82-1.94,17.06-.94,33.91-4.47,49.85-8.89,8.73-2.42,17.5-3.25,26.49-5.16,3.83-.81,8.41-2,12.53-2.44,4-.47,8.6-.26,12.39-1.6,2.65-.94,4-2.45,6.38-2.84a4.36,4.36,0,0,0,2.19-.64c1.28-.63.57,2,2.79.63.85-.53-.31-2.24.73-2.62a105.3,105.3,0,0,1,13.06-3.73c7.42-1.62,13.2-1.76,19.11-4.34,2-.88,4.49.07,7.39-.75.31-.09,3.05-1.94,3.11-2,.93-1.05-1.28-1.58-.74-2.25,1.27-1.61,3.23-1.87,4.55.13a1.3,1.3,0,0,0-.57,1.6c7.07,0,1.37-.64,1.86-1.7,1.57-3.34,5.9,2.45,3.61-3.38-.3-.78-3.21.37-3.13-1.28s3.41-1.73,3.43-1.67a7.55,7.55,0,0,0-1.67-.87c-.14.06,2.35-.95,2.93-1.27-.12.06,2.11.64,2,.64,2.09-1.26-1.49-1.27-1.41-1.27,0-5.54.24-.15,1.74-2.87-4.19-5,10.74-1.48,10-4.12.15-.81-5.74-1.23-6.18-1.29-1.82-.24-5.07.08-6.72-.62-1.3-.55-.66-2.4-1.7-3.18-.65-.49-3-.63-3.58-.63-.19-.7,12.78-4,14.67-7,2.07-3.31-.63-1.79-.38-3.18.52-2.9,1.5-.84,3.85-3.45-.77-.87-2.88.38-2.88-1.64,2.74,0,2.29-2.82,4-3.55,1.36-.58,7.56,1.08,8.28,0l-.83-.9C391.3,30,391.76,30.28,391.49,30Z"/></g></g></g></svg>