<svg xmlns="http://www.w3.org/2000/svg" xmlns:xlink="http://www.w3.org/1999/xlink" viewBox="0 0 104.42 52.29"><defs><style>.cls-1{fill:url(#linear-gradient);}</style><linearGradient id="linear-gradient" y1="26.15" x2="104.42" y2="26.15" gradientUnits="userSpaceOnUse"><stop offset="0" stop-color="#dfaa69"/><stop offset="0.45" stop-color="#dda868"/><stop offset="0.62" stop-color="#d6a364"/><stop offset="0.73" stop-color="#cb985c"/><stop offset="0.83" stop-color="#ba8a52"/><stop offset="0.91" stop-color="#a47744"/><stop offset="0.98" stop-color="#896034"/><stop offset="1" stop-color="#7e572d"/></linearGradient></defs><title>bg_them</title><g id="Layer_2" data-name="Layer 2"><g id="Layer_1-2" data-name="Layer 1"><g id="_Group_" data-name="&lt;Group&gt;"><path id="_Path_" data-name="&lt;Path&gt;" class="cls-1" d="M104.2,14.25c-.44,0-.94-.92-1.33-.92,0-.17.84-.51.42-1.1s-1.92-.22-2.45-.4c-.3-.1-2.51-.62-2.48-1.07.12-2.36,4.82.25,5.27-.92-.54-1.11-1.55-.73-2.32-.73,0-1.16-.42-.19-.77-.76a.51.51,0,0,0,.15-.44,39.91,39.91,0,0,1-9.06-1.21c-1.38-.32-2-2.73-3.54-3.34A40.67,40.67,0,0,0,78.7.56C77.07.36,75.31-.15,73.82,0a26.87,26.87,0,0,1-6.36.3C66,.19,64.37.66,62.78.71A11.39,11.39,0,0,0,58,1.53c-.69-1.33-1.67-.15-2.25-.12A11,11,0,0,0,53,1.53c-1.42.39-3.27-.31-4.68,0-3,.7-6-.46-9.21.09-1,.17-2.38.61-3.81.82a21.38,21.38,0,0,0-2.44.62,28.9,28.9,0,0,0-2.89.74c-6.63,2.39-13.46.11-20.17,1.07-1.5.21-3,.26-4.42.59-.95.21-2.54.23-3.42,1.06-1.75,1.67,0,3.56.68,5.44-.1.19-.45.53-.47.79-.13,1.67.36.36-.26,1.49-.85,1.54-1.35.3-.83,3.21a18.24,18.24,0,0,1,.59,2.61c-.05.39-.53.95-.51.82,0,.23-.36.3-.4.44-.23,1,.38,1.17.46,1.84.17,1.38.15,1.37.32,2.4,0,.18.54,2.62.49,2.44a17,17,0,0,1,.76,2.1c0,1.34.09.2-.57.41S.65,29.09.14,30.36c-.43,1.08.26,1.59.44,2.29a15.34,15.34,0,0,1,.78,3.29A13.79,13.79,0,0,0,.9,38.1c.12,1,.68,1.22,1,1.77C3.22,42.15,4.27,43.12,6,43.53a14.43,14.43,0,0,1,3.11.94c.35.17.08,1,.44,1.17a12.77,12.77,0,0,0,2,0,7.05,7.05,0,0,1,3.15,0c.75.12,1.84.8,2.63.91,1.11.15,2.91-.15,4.28,0,.23,0,1-.11,1.14,0,0,0,.8.71.58.76s1.3.06.62-.44c.46.34.07-.38.7,1.2a1,1,0,0,0,.4-.92c.23,0,.69,1.24,1.06,1.21.69-.06,1.22-3.3,2.23-1.34-.38.64-.87.92-.47,1.94.12.31,1.49-.35,1.71-.3,1.29.31,1.66,2.66,1.79-.2,0-.44-1-.12-.28-1.06.55-.69.41-.38.83.59.59,1.36.12,1.5.89,1.83.07,0,1-.34,1.3-.25,0,0,.27,1.17.43,1.21s.66-.62.82-.91c.3-.54,0-2.14.47-1.36.1.15-.05,1.35-.13,1.16.08.2.06,1.31.13,1.41h1q.36-1.26.71.16c.42.06.58.59,1.1-.29-.15-.56-.89-2,.15-2,.14,1.1-.39,1,.35,2.11.41.61.93,1.28,1.43.35.52.74.23.69.84.38.15-.08.78-1.12,1-1,0,2.15,2.27,1.07,2.65,1.05s1.63.42,2.42.46c2.22.1,4.83-.72,6.87-.92a39.17,39.17,0,0,0,13.27-4.22C70,46,72.31,45.6,74.7,44.69A24.06,24.06,0,0,1,78,43.53c1.05-.22,2.29-.12,3.3-.76.7-.44,1.05-1.17,1.7-1.35.36-.1.26,0,.58-.3s.15,1,.74.3c.23-.25-.08-1.07.19-1.24A19.74,19.74,0,0,1,88,38.39c2-.77,3.51-.84,5.09-2.06.53-.42,1.2,0,2-.36a12,12,0,0,0,.83-1c.25-.5-.34-.75-.2-1.07.34-.77.86-.89,1.21.06a.9.9,0,0,0-.15.76c1.88,0,.36-.3.5-.81.42-1.59,1.57,1.17,1-1.61-.08-.37-.86.18-.83-.61a.83.83,0,0,1,.91-.8s-.4-.45-.45-.41.63-.45.78-.6c0,0,.56.3.53.3.56-.6-.4-.6-.38-.6,0-2.63.06-.07.46-1.36-1.11-2.38,2.86-.71,2.66-2,0-.38-1.53-.58-1.65-.61-.48-.12-1.35,0-1.79-.29s-.17-1.14-.45-1.51-.8-.3-1-.3c-.05-.33,3.4-1.89,3.9-3.32s-.17-.85-.1-1.51c.14-1.38.4-.4,1-1.64-.21-.42-.77.18-.77-.78.73,0,.61-1.34,1.07-1.69s2,.51,2.2,0l-.22-.43C104.15,14.24,104.28,14.39,104.2,14.25Z"/></g></g></g></svg>